<svg id="visual" viewBox="0 0 1980 1080" width="1980" height="1080" xmlns="http://www.w3.org/2000/svg" xmlns:xlink="http://www.w3.org/1999/xlink" version="1.1"><rect x="0" y="0" width="1980" height="1080" fill="#001220"></rect><defs><linearGradient id="grad1_0" x1="45.5%" y1="0%" x2="100%" y2="100%"><stop offset="13.333333333333334%" stop-color="#fbae3c" stop-opacity="1"></stop><stop offset="86.66666666666667%" stop-color="#fbae3c" stop-opacity="1"></stop></linearGradient></defs><defs><linearGradient id="grad1_1" x1="45.5%" y1="0%" x2="100%" y2="100%"><stop offset="13.333333333333334%" stop-color="#fbae3c" stop-opacity="1"></stop><stop offset="86.66666666666667%" stop-color="#f48350" stop-opacity="1"></stop></linearGradient></defs><defs><linearGradient id="grad1_2" x1="45.5%" y1="0%" x2="100%" y2="100%"><stop offset="13.333333333333334%" stop-color="#d96162" stop-opacity="1"></stop><stop offset="86.66666666666667%" stop-color="#f48350" stop-opacity="1"></stop></linearGradient></defs><defs><linearGradient id="grad1_3" x1="45.5%" y1="0%" x2="100%" y2="100%"><stop offset="13.333333333333334%" stop-color="#d96162" stop-opacity="1"></stop><stop offset="86.66666666666667%" stop-color="#af4b6d" stop-opacity="1"></stop></linearGradient></defs><defs><linearGradient id="grad1_4" x1="45.5%" y1="0%" x2="100%" y2="100%"><stop offset="13.333333333333334%" stop-color="#7c3e6b" stop-opacity="1"></stop><stop offset="86.66666666666667%" stop-color="#af4b6d" stop-opacity="1"></stop></linearGradient></defs><defs><linearGradient id="grad1_5" x1="45.5%" y1="0%" x2="100%" y2="100%"><stop offset="13.333333333333334%" stop-color="#7c3e6b" stop-opacity="1"></stop><stop offset="86.66666666666667%" stop-color="#49335c" stop-opacity="1"></stop></linearGradient></defs><defs><linearGradient id="grad1_6" x1="45.5%" y1="0%" x2="100%" y2="100%"><stop offset="13.333333333333334%" stop-color="#1d2540" stop-opacity="1"></stop><stop offset="86.66666666666667%" stop-color="#49335c" stop-opacity="1"></stop></linearGradient></defs><defs><linearGradient id="grad1_7" x1="45.5%" y1="0%" x2="100%" y2="100%"><stop offset="13.333333333333334%" stop-color="#1d2540" stop-opacity="1"></stop><stop offset="86.66666666666667%" stop-color="#001220" stop-opacity="1"></stop></linearGradient></defs><defs><linearGradient id="grad2_0" x1="0%" y1="0%" x2="54.5%" y2="100%"><stop offset="13.333333333333334%" stop-color="#fbae3c" stop-opacity="1"></stop><stop offset="86.66666666666667%" stop-color="#fbae3c" stop-opacity="1"></stop></linearGradient></defs><defs><linearGradient id="grad2_1" x1="0%" y1="0%" x2="54.5%" y2="100%"><stop offset="13.333333333333334%" stop-color="#f48350" stop-opacity="1"></stop><stop offset="86.66666666666667%" stop-color="#fbae3c" stop-opacity="1"></stop></linearGradient></defs><defs><linearGradient id="grad2_2" x1="0%" y1="0%" x2="54.5%" y2="100%"><stop offset="13.333333333333334%" stop-color="#f48350" stop-opacity="1"></stop><stop offset="86.66666666666667%" stop-color="#d96162" stop-opacity="1"></stop></linearGradient></defs><defs><linearGradient id="grad2_3" x1="0%" y1="0%" x2="54.5%" y2="100%"><stop offset="13.333333333333334%" stop-color="#af4b6d" stop-opacity="1"></stop><stop offset="86.66666666666667%" stop-color="#d96162" stop-opacity="1"></stop></linearGradient></defs><defs><linearGradient id="grad2_4" x1="0%" y1="0%" x2="54.5%" y2="100%"><stop offset="13.333333333333334%" stop-color="#af4b6d" stop-opacity="1"></stop><stop offset="86.66666666666667%" stop-color="#7c3e6b" stop-opacity="1"></stop></linearGradient></defs><defs><linearGradient id="grad2_5" x1="0%" y1="0%" x2="54.5%" y2="100%"><stop offset="13.333333333333334%" stop-color="#49335c" stop-opacity="1"></stop><stop offset="86.66666666666667%" stop-color="#7c3e6b" stop-opacity="1"></stop></linearGradient></defs><defs><linearGradient id="grad2_6" x1="0%" y1="0%" x2="54.5%" y2="100%"><stop offset="13.333333333333334%" stop-color="#49335c" stop-opacity="1"></stop><stop offset="86.66666666666667%" stop-color="#1d2540" stop-opacity="1"></stop></linearGradient></defs><defs><linearGradient id="grad2_7" x1="0%" y1="0%" x2="54.5%" y2="100%"><stop offset="13.333333333333334%" stop-color="#001220" stop-opacity="1"></stop><stop offset="86.66666666666667%" stop-color="#1d2540" stop-opacity="1"></stop></linearGradient></defs><g transform="translate(1980, 0)"><path d="M0 972C-132.9 965.4 -265.8 958.8 -372 898C-478.2 837.2 -557.7 722.2 -618.7 618.7C-679.7 515.3 -722.1 423.4 -777.9 322.2C-833.7 221 -902.8 110.5 -972 0L0 0Z" fill="#0c1c30"></path><path d="M0 850.5C-116.3 844.7 -232.5 839 -325.5 785.8C-418.4 732.5 -488 631.9 -541.4 541.4C-594.7 450.9 -631.9 370.5 -680.7 281.9C-729.5 193.4 -790 96.7 -850.5 0L0 0Z" fill="#312c4f"></path><path d="M0 729C-99.7 724.1 -199.3 719.1 -279 673.5C-358.6 627.9 -418.3 541.6 -464 464C-509.8 386.5 -541.6 317.6 -583.4 241.7C-625.3 165.8 -677.1 82.9 -729 0L0 0Z" fill="#623965"></path><path d="M0 607.5C-83 603.4 -166.1 599.3 -232.5 561.3C-298.9 523.2 -348.6 451.4 -386.7 386.7C-424.8 322 -451.3 264.6 -486.2 201.4C-521.1 138.1 -564.3 69.1 -607.5 0L0 0Z" fill="#96446e"></path><path d="M0 486C-66.4 482.7 -132.9 479.4 -186 449C-239.1 418.6 -278.9 361.1 -309.4 309.4C-339.9 257.6 -361.1 211.7 -389 161.1C-416.8 110.5 -451.4 55.3 -486 0L0 0Z" fill="#c55469"></path><path d="M0 364.5C-49.8 362 -99.7 359.6 -139.5 336.8C-179.3 313.9 -209.2 270.8 -232 232C-254.9 193.2 -270.8 158.8 -291.7 120.8C-312.6 82.9 -338.6 41.4 -364.5 0L0 0Z" fill="#e9705a"></path><path d="M0 243C-33.2 241.4 -66.4 239.7 -93 224.5C-119.5 209.3 -139.4 180.5 -154.7 154.7C-169.9 128.8 -180.5 105.9 -194.5 80.6C-208.4 55.3 -225.7 27.6 -243 0L0 0Z" fill="#fa9845"></path><path d="M0 121.5C-16.6 120.7 -33.2 119.9 -46.5 112.3C-59.8 104.6 -69.7 90.3 -77.3 77.3C-85 64.4 -90.3 52.9 -97.2 40.3C-104.2 27.6 -112.9 13.8 -121.5 0L0 0Z" fill="#fbae3c"></path></g><g transform="translate(0, 1080)"><path d="M0 -972C97.4 -887.6 194.8 -803.1 318.4 -768.7C442 -734.2 591.9 -749.7 687.3 -687.3C782.7 -624.9 823.6 -484.6 862 -357C900.3 -229.5 936.2 -114.8 972 0L0 0Z" fill="#0c1c30"></path><path d="M0 -850.5C85.2 -776.6 170.4 -702.7 278.6 -672.6C386.8 -642.4 517.9 -656 601.4 -601.4C684.9 -546.8 720.7 -424 754.2 -312.4C787.8 -200.8 819.2 -100.4 850.5 0L0 0Z" fill="#312c4f"></path><path d="M0 -729C73 -665.7 146.1 -602.3 238.8 -576.5C331.5 -550.7 443.9 -562.3 515.5 -515.5C587 -468.7 617.7 -363.4 646.5 -267.8C675.3 -172.1 702.1 -86.1 729 0L0 0Z" fill="#623965"></path><path d="M0 -607.5C60.9 -554.7 121.7 -502 199 -480.4C276.3 -458.9 369.9 -468.6 429.6 -429.6C489.2 -390.6 514.8 -302.9 538.7 -223.2C562.7 -143.4 585.1 -71.7 607.5 0L0 0Z" fill="#96446e"></path><path d="M0 -486C48.7 -443.8 97.4 -401.6 159.2 -384.3C221 -367.1 296 -374.9 343.7 -343.7C391.4 -312.5 411.8 -242.3 431 -178.5C450.2 -114.8 468.1 -57.4 486 0L0 0Z" fill="#c55469"></path><path d="M0 -364.5C36.5 -332.8 73 -301.2 119.4 -288.3C165.8 -275.3 222 -281.1 257.7 -257.7C293.5 -234.3 308.9 -181.7 323.2 -133.9C337.6 -86.1 351.1 -43 364.5 0L0 0Z" fill="#e9705a"></path><path d="M0 -243C24.3 -221.9 48.7 -200.8 79.6 -192.2C110.5 -183.6 148 -187.4 171.8 -171.8C195.7 -156.2 205.9 -121.1 215.5 -89.3C225.1 -57.4 234 -28.7 243 0L0 0Z" fill="#fa9845"></path><path d="M0 -121.5C12.2 -110.9 24.3 -100.4 39.8 -96.1C55.3 -91.8 74 -93.7 85.9 -85.9C97.8 -78.1 103 -60.6 107.7 -44.6C112.5 -28.7 117 -14.3 121.5 0L0 0Z" fill="#fbae3c"></path></g></svg>