<svg id="visual" viewBox="0 0 1980 1080" width="1980" height="1080" xmlns="http://www.w3.org/2000/svg" xmlns:xlink="http://www.w3.org/1999/xlink" version="1.1"><rect x="0" y="0" width="1980" height="1080" fill="#001220"></rect><path d="M0 794L47.2 768.2C94.3 742.3 188.7 690.7 283 669C377.3 647.3 471.7 655.7 566 683.2C660.3 710.7 754.7 757.3 848.8 766.7C943 776 1037 748 1131.2 736.7C1225.3 725.3 1319.7 730.7 1414 719.2C1508.3 707.7 1602.7 679.3 1697 662.8C1791.3 646.3 1885.7 641.7 1932.8 639.3L1980 637L1980 1081L1932.8 1081C1885.7 1081 1791.3 1081 1697 1081C1602.7 1081 1508.3 1081 1414 1081C1319.7 1081 1225.3 1081 1131.2 1081C1037 1081 943 1081 848.8 1081C754.7 1081 660.3 1081 566 1081C471.7 1081 377.3 1081 283 1081C188.7 1081 94.3 1081 47.2 1081L0 1081Z" fill="#4facf7"></path><path d="M0 814L47.2 805.2C94.3 796.3 188.7 778.7 283 784.3C377.3 790 471.7 819 566 815C660.3 811 754.7 774 848.8 765.3C943 756.7 1037 776.3 1131.2 776.8C1225.3 777.3 1319.7 758.7 1414 767.2C1508.3 775.7 1602.7 811.3 1697 814.2C1791.3 817 1885.7 787 1932.8 772L1980 757L1980 1081L1932.8 1081C1885.7 1081 1791.3 1081 1697 1081C1602.7 1081 1508.3 1081 1414 1081C1319.7 1081 1225.3 1081 1131.2 1081C1037 1081 943 1081 848.8 1081C754.7 1081 660.3 1081 566 1081C471.7 1081 377.3 1081 283 1081C188.7 1081 94.3 1081 47.2 1081L0 1081Z" fill="#2b9dfc"></path><path d="M0 815L47.2 827.8C94.3 840.7 188.7 866.3 283 867.7C377.3 869 471.7 846 566 833.8C660.3 821.7 754.7 820.3 848.8 830.2C943 840 1037 861 1131.2 874.3C1225.3 887.7 1319.7 893.3 1414 881.2C1508.3 869 1602.7 839 1697 821.5C1791.3 804 1885.7 799 1932.8 796.5L1980 794L1980 1081L1932.8 1081C1885.7 1081 1791.3 1081 1697 1081C1602.7 1081 1508.3 1081 1414 1081C1319.7 1081 1225.3 1081 1131.2 1081C1037 1081 943 1081 848.8 1081C754.7 1081 660.3 1081 566 1081C471.7 1081 377.3 1081 283 1081C188.7 1081 94.3 1081 47.2 1081L0 1081Z" fill="#008cff"></path><path d="M0 874L47.2 886.5C94.3 899 188.7 924 283 922.7C377.3 921.3 471.7 893.7 566 890.7C660.3 887.7 754.7 909.3 848.8 920.2C943 931 1037 931 1131.2 931.8C1225.3 932.7 1319.7 934.3 1414 934.8C1508.3 935.3 1602.7 934.7 1697 936.8C1791.3 939 1885.7 944 1932.8 946.5L1980 949L1980 1081L1932.8 1081C1885.7 1081 1791.3 1081 1697 1081C1602.7 1081 1508.3 1081 1414 1081C1319.7 1081 1225.3 1081 1131.2 1081C1037 1081 943 1081 848.8 1081C754.7 1081 660.3 1081 566 1081C471.7 1081 377.3 1081 283 1081C188.7 1081 94.3 1081 47.2 1081L0 1081Z" fill="#007aff"></path><path d="M0 1010L47.2 1000.2C94.3 990.3 188.7 970.7 283 968C377.3 965.3 471.7 979.7 566 987.8C660.3 996 754.7 998 848.8 992.7C943 987.3 1037 974.7 1131.2 968C1225.3 961.3 1319.7 960.7 1414 965.2C1508.3 969.7 1602.7 979.3 1697 983.7C1791.3 988 1885.7 987 1932.8 986.5L1980 986L1980 1081L1932.8 1081C1885.7 1081 1791.3 1081 1697 1081C1602.7 1081 1508.3 1081 1414 1081C1319.7 1081 1225.3 1081 1131.2 1081C1037 1081 943 1081 848.8 1081C754.7 1081 660.3 1081 566 1081C471.7 1081 377.3 1081 283 1081C188.7 1081 94.3 1081 47.2 1081L0 1081Z" fill="#0066ff"></path></svg>