<svg id="visual" viewBox="0 0 1980 900" width="1980" height="900" xmlns="http://www.w3.org/2000/svg" xmlns:xlink="http://www.w3.org/1999/xlink" version="1.1"><rect x="0" y="0" width="1980" height="900" fill="#140021"></rect><path d="M0 619L99 619L99 646L198 646L198 681L297 681L297 583L396 583L396 581L495 581L495 702L594 702L594 600L693 600L693 670L792 670L792 708L891 708L891 742L990 742L990 707L1089 707L1089 634L1188 634L1188 638L1287 638L1287 614L1386 614L1386 654L1485 654L1485 718L1584 718L1584 683L1683 683L1683 653L1782 653L1782 750L1881 750L1881 703L1980 703L1980 743L1980 901L1980 901L1881 901L1881 901L1782 901L1782 901L1683 901L1683 901L1584 901L1584 901L1485 901L1485 901L1386 901L1386 901L1287 901L1287 901L1188 901L1188 901L1089 901L1089 901L990 901L990 901L891 901L891 901L792 901L792 901L693 901L693 901L594 901L594 901L495 901L495 901L396 901L396 901L297 901L297 901L198 901L198 901L99 901L99 901L0 901Z" fill="#9900ff"></path><path d="M0 745L99 745L99 782L198 782L198 695L297 695L297 835L396 835L396 697L495 697L495 856L594 856L594 710L693 710L693 826L792 826L792 856L891 856L891 852L990 852L990 781L1089 781L1089 850L1188 850L1188 779L1287 779L1287 802L1386 802L1386 702L1485 702L1485 845L1584 845L1584 732L1683 732L1683 806L1782 806L1782 774L1881 774L1881 846L1980 846L1980 752L1980 901L1980 901L1881 901L1881 901L1782 901L1782 901L1683 901L1683 901L1584 901L1584 901L1485 901L1485 901L1386 901L1386 901L1287 901L1287 901L1188 901L1188 901L1089 901L1089 901L990 901L990 901L891 901L891 901L792 901L792 901L693 901L693 901L594 901L594 901L495 901L495 901L396 901L396 901L297 901L297 901L198 901L198 901L99 901L99 901L0 901Z" fill="#560090"></path></svg>