<svg id="visual" viewBox="0 0 1980 900" width="1980" height="900" xmlns="http://www.w3.org/2000/svg" xmlns:xlink="http://www.w3.org/1999/xlink" version="1.1"><rect x="0" y="0" width="1980" height="900" fill="#001220"></rect><path d="M0 662L47.2 640.3C94.3 618.7 188.7 575.3 283 557.2C377.3 539 471.7 546 566 569C660.3 592 754.7 631 848.8 638.8C943 646.7 1037 623.3 1131.2 613.8C1225.3 604.3 1319.7 608.7 1414 599C1508.3 589.3 1602.7 565.7 1697 552C1791.3 538.3 1885.7 534.7 1932.8 532.8L1980 531L1980 901L1932.8 901C1885.7 901 1791.3 901 1697 901C1602.7 901 1508.3 901 1414 901C1319.7 901 1225.3 901 1131.2 901C1037 901 943 901 848.8 901C754.7 901 660.3 901 566 901C471.7 901 377.3 901 283 901C188.7 901 94.3 901 47.2 901L0 901Z" fill="#4facf7"></path><path d="M0 678L47.2 670.7C94.3 663.3 188.7 648.7 283 653.3C377.3 658 471.7 682 566 678.7C660.3 675.3 754.7 644.7 848.8 637.5C943 630.3 1037 646.7 1131.2 647C1225.3 647.3 1319.7 631.7 1414 638.8C1508.3 646 1602.7 676 1697 678.3C1791.3 680.7 1885.7 655.3 1932.8 642.7L1980 630L1980 901L1932.8 901C1885.7 901 1791.3 901 1697 901C1602.7 901 1508.3 901 1414 901C1319.7 901 1225.3 901 1131.2 901C1037 901 943 901 848.8 901C754.7 901 660.3 901 566 901C471.7 901 377.3 901 283 901C188.7 901 94.3 901 47.2 901L0 901Z" fill="#2b9dfc"></path><path d="M0 679L47.2 689.7C94.3 700.3 188.7 721.7 283 722.7C377.3 723.7 471.7 704.3 566 694.2C660.3 684 754.7 683 848.8 691.2C943 699.3 1037 716.7 1131.2 727.8C1225.3 739 1319.7 744 1414 734C1508.3 724 1602.7 699 1697 684.3C1791.3 669.7 1885.7 665.3 1932.8 663.2L1980 661L1980 901L1932.8 901C1885.7 901 1791.3 901 1697 901C1602.7 901 1508.3 901 1414 901C1319.7 901 1225.3 901 1131.2 901C1037 901 943 901 848.8 901C754.7 901 660.3 901 566 901C471.7 901 377.3 901 283 901C188.7 901 94.3 901 47.2 901L0 901Z" fill="#008cff"></path><path d="M0 728L47.2 738.5C94.3 749 188.7 770 283 769C377.3 768 471.7 745 566 742.3C660.3 739.7 754.7 757.3 848.8 766.2C943 775 1037 775 1131.2 775.8C1225.3 776.7 1319.7 778.3 1414 778.8C1508.3 779.3 1602.7 778.7 1697 780.5C1791.3 782.3 1885.7 786.7 1932.8 788.8L1980 791L1980 901L1932.8 901C1885.7 901 1791.3 901 1697 901C1602.7 901 1508.3 901 1414 901C1319.7 901 1225.3 901 1131.2 901C1037 901 943 901 848.8 901C754.7 901 660.3 901 566 901C471.7 901 377.3 901 283 901C188.7 901 94.3 901 47.2 901L0 901Z" fill="#007aff"></path><path d="M0 841L47.2 832.8C94.3 824.7 188.7 808.3 283 806.2C377.3 804 471.7 816 566 822.8C660.3 829.7 754.7 831.3 848.8 826.8C943 822.3 1037 811.7 1131.2 806.2C1225.3 800.7 1319.7 800.3 1414 804.2C1508.3 808 1602.7 816 1697 819.7C1791.3 823.3 1885.7 822.7 1932.8 822.3L1980 822L1980 901L1932.8 901C1885.7 901 1791.3 901 1697 901C1602.7 901 1508.3 901 1414 901C1319.7 901 1225.3 901 1131.2 901C1037 901 943 901 848.8 901C754.7 901 660.3 901 566 901C471.7 901 377.3 901 283 901C188.7 901 94.3 901 47.2 901L0 901Z" fill="#0066ff"></path></svg>